<svg xmlns="http://www.w3.org/2000/svg" viewBox="0 0 100 100">
  <rect width="100" height="100" rx="22" fill="#2531A5"/>
  <!-- W from WBT wordmark: source coords x:0–185, y:23–180. Scale 0.41, translate to center with clearance. -->
  <g transform="translate(8, 10) scale(0.41)">
    <path d="M72.89,31.29c-2.28-.53-3.52-1.59-3.52-4.4,0-2.46,1.58-3.87,3.34-3.87,3.52,0,8.18.88,22.95.88,17.06,0,26.91-.88,29.72-.88,2.28,0,3.69,1.58,3.69,4.04s-1.05,3.87-3.17,4.22c-10.55,1.76-12.84,4.57-10.73,11.61l23.74,81.25c.53,1.59.88,1.41,1.41,0l21.81-79.32c2.29-8.44-1.05-11.96-11.08-13.54-2.29-.35-3.69-1.94-3.69-4.22,0-2.46,1.58-4.04,3.69-4.04,2.99,0,9.67.7,21.63.7,12.66,0,19.52-.88,21.99-.88,2.11,0,3.69,1.76,3.69,4.22s-1.05,3.7-3.34,4.22c-10.38,2.63-14.25,4.57-16.88,14.25l-32.89,120.3c-1.58,5.45-4.57,8.44-10.73,8.44s-9.5-2.99-11.26-8.44l-18.29-56.11c-.53-1.58-.88-1.58-1.41-.17l-17.59,56.28c-1.76,5.45-4.57,8.44-11.61,8.44s-10.38-2.99-12.31-8.44L18.98,41.14c-2.11-6.33-4.92-8.09-11.96-9.85-2.28-.53-3.69-1.94-3.69-4.4s1.58-3.87,3.52-3.87c2.81,0,12.49.88,25.68.88,15.65,0,22.16-.8,25.85-.8,2.29,0,3.7,1.58,3.7,4.04,0,2.64-1.41,3.87-3.52,4.22-10.55,1.58-9.14,4.14-6.86,11.35l28.14,85.12c.53,1.59,1.05,1.41,1.41,0l14.42-40.8c.7-2.29.7-4.05.17-5.81l-13.01-40.1c-2.11-6.33-3.25-8.27-9.94-9.85Z" fill="#F9F8F2"/>
  </g>
</svg>
