<?xml version="1.0" encoding="UTF-8"?>
<svg id="Layer_1" xmlns="http://www.w3.org/2000/svg" version="1.1" viewBox="0 0 341.64 409.21">
  
  <path d="M339.54,188.36c-2.66-44.12-15.24-90.73-27.08-114.95C294,32.09,247.69,5.65,187.5,1.47c-5.57-.39-12.55-.58-17.1-.58s-11.77.2-17.45.6C92.92,5.76,46.75,32.17,28.34,73.41,16.49,97.62,3.92,144.21,1.26,188.32c-.33,5.52-.51,14.41-.51,16.42s.18,10.92.51,16.45c2.66,44.1,15.24,90.68,27.08,114.89,18.43,41.26,64.65,67.69,124.74,71.92,5.64.4,14.78.6,17.27.6s11.61-.2,17.19-.59c60.18-4.19,106.46-30.63,124.91-71.93,11.84-24.21,24.41-70.78,27.08-114.88.33-5.54.51-12.58.51-16.44s-.18-10.89-.51-16.41ZM318.46,220.22c-2.33,41.46-13.34,85.24-23.7,108-16.15,38.83-56.67,63.68-109.35,67.62-4.89.37-12.88.55-15.05.55s-10.18-.19-15.12-.56c-52.61-3.98-93.07-28.82-109.2-67.61-10.36-22.76-21.37-66.55-23.7-108.01-.29-5.2-.45-13.57-.45-15.47s.16-10.25.45-15.44c2.33-41.47,13.34-85.26,23.7-108.03C62.16,42.51,102.57,17.67,155.12,13.67c4.97-.38,11.29-.57,15.27-.57s10.09.18,14.97.55c52.7,3.93,93.24,28.79,109.39,67.63,10.37,22.77,21.38,66.59,23.71,108.07.29,5.18.45,11.79.45,15.42s-.16,10.25-.45,15.46Z" fill="#1f1e1e"></path>
  <g>
    <path d="M245.75,148.05c11.46-3.57,18.92-12.87,18.92-24.84,0-15.53-12.39-25.73-31.44-25.73-4.8,0-12.92.51-21.45.51-5.71.04-23.36.04-27.26,0-7.06,0-13.19-.51-14.66-.51-1.6,0-2.53.76-2.53,2.16,0,1.27.8,2.3,2.53,2.55,7.6,1.15,10.66,3.44,9.06,9.56l-18.12,70.68c-.27,1.03-.53,1.15-.93,0l-22.12-72.22c-1.6-5.09.93-6.75,8.93-8.02,1.6-.25,2.13-1.28,2.13-2.42,0-1.4-.8-2.3-2.53-2.3-2.13,0-9.86.64-17.45.64-10.53,0-14.2-.64-16.87-.64-1.33,0-2.26.76-2.26,2.16s.67,2.16,2.4,2.55c5.06,1.15,5.81,2.67,7.27,7.26l11.33,35.03c.4,1.27.4,2.55-.13,4.21l-12.26,35.92c-.4,1.02-.66,1.14-1.06,0l-25.58-74.4c-1.74-5.22-2.26-6.87,5.73-8.02,1.6-.25,2.4-.9,2.4-2.42,0-1.4-.8-2.3-2.53-2.3-2.14,0-7.73.64-16.26.64-7.32,0-15.05-.64-17.05-.64-1.46,0-2.4.76-2.4,2.16s.8,2.16,2.53,2.55c5.33,1.27,7.2,2.67,8.93,7.26l33.71,93.24c1.07,3.06,3.2,4.33,6.53,4.33s4.93-1.27,5.99-4.33l15.32-43.31c.4-1.02.67-1.02,1.07.13l13.99,43.18c.94,3.06,3.07,4.33,6.4,4.33s5.06-1.27,5.86-4.33l24.92-91.84c1.13-4.13,3.47-5.92,7.11-7.19,1.85-.59,4.52-.25,5.2.19,1.35.88,2.31,2.11,2.31,3.94v88.91c0,4.08-4.67,5.35-8.13,5.99-2.13.39-2.53,1.27-2.53,2.29,0,.9.53,2.04,2.67,2.04,3.06,0,9.72-.25,18.38-.25l22.51.25c21.19,0,34.91-12.09,34.91-30.7,0-14.01-9.46-24.96-23.45-28.28ZM218.7,108.44c0-4.72,2.53-5.87,8.66-5.87,11.72,0,18.65,7.9,18.65,21.41s-8.39,22.67-21.45,22.67c-4.53,0-5.86-1.15-5.86-4.71v-33.5ZM230.42,201.93c-7.86,0-11.72-2.67-11.72-9.55v-35.67c0-4.2,1.33-4.97,6.92-4.97,15.06,0,24.92,9.94,24.92,25.1s-7.73,25.1-20.12,25.1Z" fill="#1f1e1e"></path>
    <path d="M243.55,231.12c0-2.81-1.6-3.82-4.93-3.82-6.4,0-49.52,3.26-66.04,3.26h-.04c-16.52,0-59.59-3.26-65.99-3.26-3.33,0-4.93,1.02-4.93,3.82l.27,10.2-.13,9.54c0,1.4.8,2.16,2.13,2.16s1.54-.74,2.93-3.18c9.33-18,51.19-13.3,51.19-13.3,4.13,0,5.86,2.04,5.86,5.73v83.44c0,6.63-4.66,7.9-8.39,8.66-1.73.39-2.13,1.15-2.13,2.16,0,.9.53,2.04,2.26,2.04,1.46,0,9.33-.76,16.92-.76h0s.01,0,.02,0h.02s0,0,0,0c7.6,0,15.46.76,16.92.76,1.73,0,2.26-1.15,2.26-2.04,0-1.02-.4-1.78-2.13-2.16-3.73-.76-8.39-2.03-8.39-8.66v-83.44c0-3.69,1.73-5.73,5.86-5.73,0,0,41.92-4.71,51.25,13.3,1.39,2.44,1.6,3.18,2.93,3.18s2.13-.76,2.13-2.16l-.13-9.54.27-10.2Z" fill="#1f1e1e"></path>
  </g>
</svg>