<?xml version="1.0" encoding="UTF-8"?>
<svg id="Layer_1" xmlns="http://www.w3.org/2000/svg" version="1.1" viewBox="0 0 1000 409.21">
  
  <g>
    <path d="M148.5,219.62c-15.48,0-20.05,10.38-23.22,19.7-1.23,3.69-2.99,4.75-4.92,4.75-2.11,0-3.52-1.23-3.52-3.52l.17-12.66-.35-14.07c0-3.87,2.11-5.27,6.51-5.27,8.44,0,26.73,2.11,48.54,2.11s41.51-2.11,48.37-2.11c4.4,0,6.51,1.41,6.51,5.27l-.35,14.07.17,12.66c0,2.28-1.06,3.52-3.17,3.52-1.94,0-3.69-1.05-4.92-4.75-3.17-9.32-8.09-19.7-23.57-19.7-5.45,0-7.74,2.82-7.74,7.92v114.49c0,7.39,5.98,9.15,10.55,10.2,2.29.53,3.34,1.94,3.34,3.87s-1.23,3.69-3.52,3.69c-2.46,0-11.78-1.05-25.68-1.05s-23.39,1.05-25.86,1.05c-2.28,0-3.52-1.58-3.52-3.69,0-1.94,1.05-3.34,3.34-3.87,4.93-1.05,10.55-2.81,10.55-10.2v-114.49c0-5.1-2.29-7.92-7.74-7.92Z" fill="#1f1e1e"></path>
    <path d="M215.46,301.09c0-35.18,19.88-58.22,50.48-58.22s50.48,23.04,50.48,58.22c0,36.93-19.88,60.85-50.48,60.85s-50.48-23.92-50.48-60.85ZM286.51,301.09c0-30.6-7.56-48.54-20.58-48.54s-20.58,17.94-20.58,48.54c0,32.36,7.56,51.18,20.58,51.18s20.58-18.82,20.58-51.18Z" fill="#1f1e1e"></path>
    <path d="M354.95,332.89c0,2.82,2.28,4.57,6.33,4.57,8.97,0,17.94-2.46,27.96-2.46,21.81,0,36.06,10.73,36.06,27.26,0,25.15-23.57,43.27-55.93,43.27-27.44,0-47.31-11.08-47.31-26.21,0-9.32,5.98-16.01,16.01-21.99,1.05-.7,1.05-1.41.35-2.46-4.04-4.75-7.56-10.55-7.56-14.6,0-10.73,10.73-15.83,20.93-18.47,1.23-.35,1.23-.7.18-1.23-14.42-6.69-23.39-19.88-23.39-36.23,0-23.74,19.52-40.8,46.61-40.8,4.93,0,9.5.53,13.72,1.58,8.62,2.46,8.97,4.22,13.9,4.22h18.47c3.17,0,4.75,2.11,4.75,4.75,0,2.82-1.41,5.1-5.1,5.1h-9.32c5.63,6.86,8.79,15.48,8.79,25.15,0,23.92-18.99,41.15-45.2,41.15h-.7c-5.81,0-19.52,1.05-19.52,7.39ZM376.41,392.68c16.88,0,27.97-6.86,27.97-17.58,0-9.85-7.56-14.42-23.74-14.42-8.79,0-21.46,1.76-29.2,2.11-.88,2.29-1.58,5.1-1.58,8.62,0,13.37,9.85,21.28,26.56,21.28ZM390.48,284.35c0-19.7-5.63-31.13-15.3-31.13-10.55,0-16.71,11.43-16.71,31.13s6.16,31.13,16.71,31.13c9.67,0,15.3-11.43,15.3-31.13Z" fill="#1f1e1e"></path>
    <path d="M483.76,243.54c22.51,0,37.28,16.88,37.28,42.74,0,6.68-2.64,9.85-6.68,9.85h-49.24c-1.06,0-1.59.53-1.59,1.23l-.17,5.98c0,30.78,10.03,46.96,29.2,46.96,8.62,0,14.6-3.69,20.93-9.32,1.41-1.23,3.17-1.58,4.92-.35,1.58,1.23,1.58,2.81.7,4.57-5.28,10.55-18.47,17.24-33.77,17.24-31.48,0-51.88-22.69-51.88-57.51,0-37.11,19.87-61.38,50.3-61.38ZM495.9,270.45c0-11.26-3.87-17.24-11.61-17.24-10.73,0-17.59,10.91-20.05,31.48-.17,1.23.35,1.76,1.41,1.76h16.71c10.03,0,13.54-5.27,13.54-16Z" fill="#1f1e1e"></path>
    <path d="M538.15,337.46v-78.97c0-1.58-.53-2.28-1.58-2.28l-4.57.35c-1.76,0-3.34-1.58-3.34-3.69,0-1.94.88-2.99,2.82-3.87,8.62-3.52,21.81-10.55,28.14-20.93.53-.88,1.23-1.59,3.17-1.59,2.11,0,3.52.88,3.52,2.64v14.07c0,2.29,1.41,3.17,4.05,3.17h10.73c3.34,0,5.1,1.76,5.1,4.75s-1.06,4.92-5.1,4.92h-10.9c-2.64,0-3.87,1.05-3.87,3.17v70.53c0,13.9,1.58,20.23,8.97,20.23,2.81,0,4.92-1.23,7.74-3.17,1.93-1.41,3.17-1.06,4.22-.18,1.41,1.23,1.23,3.34.17,4.92-4.93,7.21-12.31,11.08-21.63,11.08-16.36,0-27.61-9.33-27.61-25.15Z" fill="#1f1e1e"></path>
    <path d="M602.2,207.66c-1.93-.53-2.81-1.76-2.81-3.52,0-1.59.7-2.82,2.99-3.17,8.79-1.23,23.04-5.28,28.32-10.55,1.05-1.05,1.58-1.23,2.81-1.23,1.59,0,2.29.7,2.29,3.87v60.68c0,1.58.7,1.58,2.11.17,6.86-6.51,15.13-10.38,24.27-10.38,17.94,0,32.54,12.49,32.54,33.77v63.84c0,9.14,5.1,11.08,8.97,11.96,2.29.53,3.17,1.76,3.17,3.52,0,1.59-1.05,3.17-3.34,3.17-2.46,0-10.2-1.05-21.98-1.05-13.54,0-21.28,1.05-23.74,1.05-2.29,0-3.34-1.58-3.34-3.17,0-1.76.88-2.99,3.17-3.52,3.87-.88,8.97-2.82,8.97-11.96v-62.09c0-13.72-4.05-20.93-13.37-20.93-10.91,0-17.41,10.73-17.41,24.27v58.74c0,9.14,5.1,11.08,8.97,11.96,2.29.53,3.17,1.76,3.17,3.52,0,1.59-1.05,3.17-3.34,3.17-2.46,0-10.2-1.05-23.04-1.05s-20.23,1.05-22.69,1.05c-2.29,0-3.34-1.58-3.34-3.17,0-1.76.88-2.99,3.17-3.52,3.87-.88,8.97-2.82,8.97-11.96v-126.11c0-4.92-1.58-6.33-5.45-7.39Z" fill="#1f1e1e"></path>
    <path d="M758.29,243.54c22.51,0,37.28,16.88,37.28,42.74,0,6.68-2.64,9.85-6.68,9.85h-49.25c-1.06,0-1.58.53-1.58,1.23l-.18,5.98c0,30.78,10.03,46.96,29.2,46.96,8.62,0,14.6-3.69,20.93-9.32,1.41-1.23,3.17-1.58,4.92-.35,1.59,1.23,1.59,2.81.7,4.57-5.28,10.55-18.47,17.24-33.77,17.24-31.48,0-51.88-22.69-51.88-57.51,0-37.11,19.88-61.38,50.3-61.38ZM770.42,270.45c0-11.26-3.87-17.24-11.61-17.24-10.73,0-17.59,10.91-20.05,31.48-.18,1.23.35,1.76,1.41,1.76h16.71c10.03,0,13.54-5.27,13.54-16Z" fill="#1f1e1e"></path>
    <path d="M808.06,262.36c-1.94-.53-2.81-1.59-2.81-3.34,0-1.58.7-2.99,2.99-3.34,6.86-1.05,22.86-5.1,28.32-10.55,1.06-1.05,1.41-1.23,2.64-1.23,1.59,0,2.46.7,2.46,2.29v12.84c0,1.59.35,1.59,1.06.18,4.39-9.14,11.78-15.65,20.58-15.65,7.91,0,13.19,5.27,13.19,13.54,0,7.21-3.34,11.78-8.62,11.78-8.09,0-8.62-9.49-14.42-9.49-4.22,0-7.74,4.92-10.2,11.26-1.06,3.34-1.59,7.03-1.59,11.08v60.32c0,8.27,5.81,9.68,12.49,11.08,2.29.53,3.16,1.76,3.16,3.52,0,1.59-1.05,3.17-3.34,3.17-2.46,0-12.84-1.05-26.56-1.05-12.49,0-20.23,1.05-22.69,1.05-2.29,0-3.34-1.58-3.34-3.17,0-1.76.88-2.81,3.17-3.52,3.87-1.06,8.97-2.82,8.97-11.08v-72.28c0-4.92-1.58-6.33-5.45-7.39Z" fill="#1f1e1e"></path>
  </g>
  <g>
    <path d="M72.89,31.29c-2.28-.53-3.52-1.59-3.52-4.4,0-2.46,1.58-3.87,3.34-3.87,3.52,0,8.18.88,22.95.88,17.06,0,26.91-.88,29.72-.88,2.28,0,3.69,1.58,3.69,4.04s-1.05,3.87-3.17,4.22c-10.55,1.76-12.84,4.57-10.73,11.61l23.74,81.25c.53,1.59.88,1.41,1.41,0l21.81-79.32c2.29-8.44-1.05-11.96-11.08-13.54-2.29-.35-3.69-1.94-3.69-4.22,0-2.46,1.58-4.04,3.69-4.04,2.99,0,9.67.7,21.63.7,12.66,0,19.52-.88,21.99-.88,2.11,0,3.69,1.76,3.69,4.22s-1.05,3.7-3.34,4.22c-10.38,2.63-14.25,4.57-16.88,14.25l-32.89,120.3c-1.58,5.45-4.57,8.44-10.73,8.44s-9.5-2.99-11.26-8.44l-18.29-56.11c-.53-1.58-.88-1.58-1.41-.17l-17.59,56.28c-1.76,5.45-4.57,8.44-11.61,8.44s-10.38-2.99-12.31-8.44L18.98,41.14c-2.11-6.33-4.92-8.09-11.96-9.85-2.28-.53-3.69-1.94-3.69-4.4s1.58-3.87,3.52-3.87c2.81,0,12.49.88,25.68.88,15.65,0,22.16-.8,25.85-.8,2.29,0,3.7,1.58,3.7,4.04,0,2.64-1.41,3.87-3.52,4.22-10.55,1.58-9.14,4.14-6.86,11.35l28.14,85.12c.53,1.59,1.05,1.41,1.41,0l14.42-40.8c.7-2.29.7-4.05.17-5.81l-13.01-40.1c-2.11-6.33-3.25-8.27-9.94-9.85Z" fill="#1f1e1e"></path>
    <path d="M178.41,116.24c0-35.18,19.88-58.22,50.48-58.22s50.48,23.04,50.48,58.22c0,36.93-19.87,60.85-50.48,60.85s-50.48-23.92-50.48-60.85ZM249.46,116.24c0-30.6-7.56-48.54-20.58-48.54s-20.58,17.94-20.58,48.54c0,32.36,7.56,51.18,20.58,51.18s20.58-18.82,20.58-51.18Z" fill="#1f1e1e"></path>
    <path d="M290.39,76.84c-1.94-.53-2.81-1.59-2.81-3.34,0-1.58.7-2.99,2.99-3.34,6.86-1.05,22.86-5.1,28.32-10.55,1.06-1.05,1.41-1.23,2.64-1.23,1.59,0,2.46.7,2.46,2.29v12.84c0,1.59.35,1.59,1.06.18,4.39-9.14,11.78-15.65,20.58-15.65,7.91,0,13.19,5.27,13.19,13.54,0,7.21-3.34,11.78-8.62,11.78-8.09,0-8.62-9.49-14.42-9.49-4.22,0-7.74,4.92-10.2,11.26-1.06,3.34-1.59,7.03-1.59,11.08v60.32c0,8.27,5.81,9.68,12.49,11.08,2.29.53,3.16,1.76,3.16,3.52,0,1.59-1.05,3.17-3.34,3.17-2.46,0-12.84-1.05-26.56-1.05-12.49,0-20.23,1.05-22.69,1.05-2.29,0-3.34-1.58-3.34-3.17,0-1.76.88-2.81,3.17-3.52,3.87-1.06,8.97-2.82,8.97-11.08v-72.28c0-4.92-1.58-6.33-5.45-7.39Z" fill="#1f1e1e"></path>
    <path d="M420.36,170.76c0-1.94,1.41-3.17,3.34-3.69,4.75-1.23,5.1-4.05,2.64-8.09l-22.34-35.88c-1.06-1.94-1.94-2.28-2.82-1.41l.35-.35c-.7.7-1.06,1.76-1.06,3.17v30.25c0,9.15,5.1,11.08,8.97,11.96,2.29.53,3.17,1.94,3.17,3.87,0,1.76-1.05,3.69-3.34,3.69-1.94,0-10.2-1.05-23.04-1.05s-20.75,1.05-22.69,1.05c-2.29,0-3.34-1.94-3.34-3.69,0-1.94.88-3.34,3.17-3.87,3.87-.88,8.97-2.81,8.97-11.96V30.41c0-4.92-1.58-6.33-5.45-7.39-1.94-.53-2.81-1.94-2.81-3.87,0-1.76.7-3.34,2.99-3.69,10.38-1.59,23.57-5.81,28.32-10.55,1.06-1.05,1.58-1.23,2.81-1.23s2.29.53,2.29,2.11v94.1c0,1.58.53,1.76,1.58.7l20.4-20.58c6.16-6.16,4.4-8.79-3.52-11.43-1.58-.53-2.99-1.76-2.99-4.04,0-2.11,1.58-3.7,3.34-3.7,3.17,0,9.15.88,21.81.88,11.43,0,17.59-.88,20.75-.88,1.94,0,3.34,1.23,3.34,3.34s-1.23,3.34-3.17,3.87c-10.73,3.17-14.25,4.57-20.58,11.08l-18.82,19.87c-.7.7-.7,1.59-.18,2.46l35.35,55.23c4.22,6.68,8.97,8.44,13.54,10.03,2.11.7,3.52,1.94,3.52,4.05s-1.58,3.52-3.87,3.52c-3.87,0-10.73-1.05-23.22-1.05s-19.88,1.05-23.92,1.05c-1.94,0-3.52-1.41-3.52-3.52Z" fill="#1f1e1e"></path>
    <path d="M494.26,30.77c-2.81-.53-3.69-2.11-3.69-4.05s1.06-3.69,3.87-3.69c4.05,0,12.14.7,27.44.7,11.26,0,21.99-.7,28.32-.7,27.26,0,45.02,14.07,45.02,35.53,0,16.88-10.38,29.19-28.14,34.3,20.05,4.75,34.12,20.4,34.12,39.05,0,25.68-19.52,42.39-49.6,42.39l-29.73-.35c-14.95,0-23.39.35-27.44.35-2.81,0-3.87-1.76-3.87-3.69s.88-3.52,3.69-4.05c4.57-.88,10.38-2.63,10.38-8.26V39.03c0-5.63-5.81-7.39-10.38-8.26ZM562.67,59.61c0-17.76-6.33-26.91-18.47-26.91-6.86,0-8.79,1.94-8.79,8.97v39.22c0,6.51,2.64,8.27,9.14,8.27,11.96,0,18.12-10.2,18.12-29.55ZM546.67,164.6c14.42,0,21.98-10.9,21.98-32.01s-8.09-32.89-23.39-32.89c-7.04,0-9.85,1.23-9.85,8.62v45.2c0,7.74,2.81,11.08,11.26,11.08Z" fill="#1f1e1e"></path>
    <path d="M663.51,58.02c22.51,0,37.28,16.88,37.28,42.74,0,6.68-2.64,9.85-6.68,9.85h-49.24c-1.06,0-1.59.53-1.59,1.23l-.17,5.98c0,30.78,10.03,46.96,29.2,46.96,8.62,0,14.6-3.69,20.93-9.32,1.41-1.23,3.17-1.58,4.92-.35,1.58,1.23,1.58,2.81.7,4.57-5.28,10.55-18.47,17.24-33.77,17.24-31.48,0-51.88-22.69-51.88-57.51,0-37.11,19.87-61.38,50.3-61.38ZM675.64,84.93c0-11.26-3.87-17.24-11.61-17.24-10.73,0-17.59,10.91-20.05,31.48-.17,1.23.35,1.76,1.41,1.76h16.71c10.03,0,13.54-5.27,13.54-16Z" fill="#1f1e1e"></path>
    <path d="M879.03,58.02c22.51,0,37.29,16.88,37.29,42.74,0,6.68-2.64,9.85-6.68,9.85h-49.24c-1.05,0-1.58.53-1.58,1.23l-.17,5.98c0,30.78,10.03,46.96,29.19,46.96,8.62,0,14.6-3.69,20.93-9.32,1.41-1.23,3.16-1.58,4.92-.35,1.58,1.23,1.58,2.81.7,4.57-5.28,10.55-18.47,17.24-33.77,17.24-31.48,0-51.88-22.69-51.88-57.51,0-37.11,19.87-61.38,50.3-61.38ZM891.17,84.93c0-11.26-3.87-17.24-11.61-17.24-10.73,0-17.59,10.91-20.05,31.48-.17,1.23.35,1.76,1.41,1.76h16.71c10.03,0,13.54-5.27,13.54-16Z" fill="#1f1e1e"></path>
    <path d="M928.25,76.84c-1.93-.53-2.81-1.59-2.81-3.34,0-1.58.7-2.99,2.99-3.34,6.86-1.05,22.86-5.1,28.32-10.55,1.05-1.05,1.41-1.23,2.64-1.23,1.58,0,2.46.7,2.46,2.29v12.84c0,1.59.35,1.59,1.06.18,4.4-9.14,11.78-15.65,20.58-15.65,7.91,0,13.19,5.27,13.19,13.54,0,7.21-3.34,11.78-8.62,11.78-8.09,0-8.62-9.49-14.42-9.49-4.22,0-7.74,4.92-10.2,11.26-1.05,3.34-1.58,7.03-1.58,11.08v60.32c0,8.27,5.8,9.68,12.49,11.08,2.29.53,3.17,1.76,3.17,3.52,0,1.59-1.06,3.17-3.34,3.17-2.46,0-12.84-1.05-26.56-1.05-12.49,0-20.23,1.05-22.69,1.05-2.29,0-3.34-1.58-3.34-3.17,0-1.76.88-2.81,3.17-3.52,3.87-1.06,8.97-2.82,8.97-11.08v-72.28c0-4.92-1.58-6.33-5.45-7.39Z" fill="#1f1e1e"></path>
    <path d="M825.96,161.09c-1.06-.88-2.29-1.23-4.22.18-2.82,1.94-4.93,3.17-7.74,3.17-7.39,0-8.97-6.33-8.97-20.23v-70.53c0-2.11,1.23-3.17,3.87-3.17h10.91c4.04,0,5.1-1.94,5.1-4.92s-1.76-4.75-5.1-4.75h-10.73c-2.64,0-4.05-.88-4.05-3.17v-14.07c0-1.76-1.41-2.64-3.52-2.64-1.94,0-2.64.7-3.17,1.59-.71,1.16-1.53,2.26-2.39,3.33-3.36,4.31-10.09,14.96-31.94,14.96h-14.56c-2.64,0-4.05-.88-4.05-3.17v-14.07c0-1.76-1.41-2.64-3.52-2.64-1.94,0-2.64.7-3.17,1.59-6.33,10.38-19.52,17.41-28.14,20.93-1.94.88-2.82,1.94-2.82,3.87,0,2.11,1.59,3.69,3.34,3.69l4.57-.35c1.05,0,1.58.7,1.58,2.28v78.97c0,15.83,11.26,25.15,27.61,25.15,9.32,0,16.71-3.87,21.63-11.08,1.06-1.58,1.23-3.69-.17-4.92-1.06-.88-2.29-1.23-4.22.18-2.81,1.94-4.93,3.17-7.74,3.17-7.39,0-8.97-6.33-8.97-20.23v-70.53c0-1.91,1.06-2.9,3.2-3.09h5.34l7.71.04h11.69s1.36,0,1.36,0c0,0,.63-.01,1.14.18.11.04.21.1.3.16.06.04.13.09.17.14.36.36.56.95.56,1.87v78.97c0,15.83,11.26,25.15,27.61,25.15,9.32,0,16.71-3.87,21.64-11.08,1.05-1.58,1.23-3.69-.18-4.92Z" fill="#1f1e1e"></path>
  </g>
</svg>